<?xml version="1.0" standalone="no"?>
<!DOCTYPE svg PUBLIC "-//W3C//DTD SVG 20010904//EN"
 "http://www.w3.org/TR/2001/REC-SVG-20010904/DTD/svg10.dtd">
<svg version="1.0" xmlns="http://www.w3.org/2000/svg"
 width="956.000000pt" height="956.000000pt" viewBox="0 0 956.000000 956.000000"
 preserveAspectRatio="xMidYMid meet">
<metadata>
Created by potrace 1.14, written by Peter Selinger 2001-2017
</metadata>
<g transform="translate(0.000000,956.000000) scale(0.100000,-0.100000)"
fill="#000000" stroke="none">
<path d="M4607 9324 c-1 -1 -57 -5 -125 -9 -67 -3 -130 -8 -140 -10 -15 -3
-105 -13 -172 -20 -21 -2 -154 -26 -285 -51 -61 -11 -208 -45 -215 -49 -3 -2
-18 -6 -33 -9 -68 -12 -438 -133 -522 -171 -16 -7 -64 -28 -105 -45 -116 -50
-274 -128 -398 -197 -62 -35 -115 -63 -118 -63 -3 0 -10 -5 -17 -10 -7 -6 -79
-55 -162 -110 -82 -54 -168 -113 -190 -129 -22 -17 -51 -38 -65 -48 -14 -9
-41 -31 -61 -48 -19 -16 -57 -48 -84 -70 -147 -119 -328 -295 -500 -486 -102
-113 -333 -420 -390 -516 -11 -18 -23 -33 -27 -33 -4 0 -7 -3 -6 -7 1 -5 -5
-19 -13 -33 -9 -14 -24 -38 -35 -55 -10 -16 -29 -50 -42 -75 -14 -25 -30 -52
-36 -60 -12 -15 -181 -350 -181 -360 0 -5 -53 -132 -80 -195 -7 -16 -23 -57
-34 -90 -12 -33 -24 -67 -28 -75 -3 -8 -7 -19 -8 -25 -2 -5 -16 -53 -33 -105
-46 -149 -65 -213 -69 -234 -2 -10 -12 -55 -23 -100 -10 -44 -24 -106 -30
-136 -5 -30 -12 -64 -14 -75 -5 -24 -19 -114 -21 -135 -1 -9 -5 -36 -9 -61
-29 -196 -41 -383 -40 -639 1 -185 10 -394 20 -444 2 -10 6 -44 9 -75 10 -84
19 -142 46 -291 27 -147 24 -135 64 -292 91 -360 246 -753 419 -1063 55 -99
77 -137 91 -159 8 -12 12 -26 8 -31 -5 -4 -2 -5 5 -1 6 4 12 3 12 -2 0 -8 127
-207 151 -236 5 -6 39 -51 76 -101 158 -214 446 -527 632 -686 35 -29 69 -59
75 -64 6 -6 45 -37 86 -70 41 -33 80 -63 85 -68 6 -4 35 -26 65 -48 30 -22 62
-45 71 -52 8 -7 24 -17 35 -24 329 -207 375 -234 549 -321 109 -54 156 -76
255 -117 36 -15 79 -33 95 -40 83 -37 454 -154 575 -181 36 -8 74 -17 85 -20
11 -3 31 -7 45 -10 14 -3 57 -12 96 -20 39 -8 91 -17 115 -20 24 -3 67 -9 94
-14 28 -5 79 -12 115 -15 36 -3 75 -7 86 -9 39 -8 301 -19 434 -19 126 0 274
7 415 18 54 5 299 39 356 50 13 3 40 8 59 11 116 20 340 77 495 126 72 23 132
42 135 43 3 1 14 5 25 10 11 4 71 27 134 52 63 24 130 51 150 59 72 32 386
188 391 194 3 4 34 22 70 41 35 19 69 38 75 42 5 4 78 52 160 107 338 223 677
523 922 816 68 81 90 108 149 184 37 47 85 112 107 145 23 33 45 65 49 70 21
24 122 190 182 295 36 63 69 120 73 125 5 6 10 14 10 18 1 4 27 61 58 125 32
64 61 126 66 137 4 11 20 47 34 80 15 33 36 85 47 115 11 30 26 69 34 87 8 17
14 37 14 45 0 8 3 18 8 22 4 4 7 11 8 14 0 4 17 59 37 122 33 105 103 369 113
430 3 14 11 59 19 100 8 41 17 93 20 115 3 22 8 49 10 61 2 11 7 45 10 75 3
30 8 68 10 84 4 27 10 90 21 235 9 130 4 514 -10 660 -11 105 -18 175 -21 190
-8 42 -18 108 -21 135 -5 41 -10 72 -23 136 -6 30 -13 63 -15 74 -54 264 -176
648 -281 880 -64 142 -97 212 -107 230 -6 10 -23 42 -38 70 -48 92 -87 159
-129 228 -22 37 -41 71 -41 76 0 5 -3 11 -7 13 -5 2 -30 37 -58 78 -328 495
-764 932 -1245 1250 -69 45 -137 91 -152 101 -15 10 -29 19 -31 19 -2 0 -44
23 -93 51 -91 53 -359 187 -449 226 -264 112 -578 210 -865 268 -140 29 -145
30 -250 44 -248 34 -361 43 -608 45 -111 1 -204 1 -205 0z m458 -509 c50 -4
104 -8 120 -10 64 -6 272 -37 313 -46 23 -5 59 -12 79 -15 179 -28 574 -155
808 -259 125 -56 363 -179 417 -216 14 -11 29 -19 32 -19 15 0 313 -209 416
-291 151 -122 172 -141 325 -294 175 -175 226 -232 351 -395 276 -358 485
-752 628 -1183 112 -337 178 -674 202 -1032 16 -247 -3 -664 -40 -850 -2 -11
-7 -42 -10 -68 -10 -65 -15 -91 -45 -222 -105 -465 -296 -916 -557 -1313 -69
-105 -222 -314 -273 -372 -12 -14 -45 -52 -74 -85 -128 -150 -379 -384 -577
-538 -152 -119 -439 -296 -645 -400 -301 -150 -690 -280 -1020 -341 -110 -21
-210 -36 -270 -42 -38 -3 -79 -8 -89 -10 -36 -7 -270 -18 -376 -17 -108 0
-381 12 -390 18 -3 1 -36 6 -75 9 -38 3 -81 8 -95 11 -14 3 -52 10 -85 15 -33
5 -72 12 -87 15 -16 3 -38 7 -50 9 -377 69 -851 249 -1216 463 -586 343 -1064
818 -1427 1418 -109 180 -260 503 -325 695 -12 36 -26 74 -31 85 -22 53 -109
378 -124 465 -3 19 -15 85 -25 145 -10 61 -22 135 -26 165 -3 30 -8 66 -9 80
-24 189 -24 641 0 845 69 585 238 1104 518 1592 548 954 1470 1641 2537 1892
69 16 139 32 155 34 17 3 71 12 120 21 50 8 117 18 150 22 33 3 69 8 79 10 11
2 71 6 135 10 64 3 117 7 119 9 5 4 350 -3 437 -10z"/>
<path d="M4657 8314 c-1 -1 -47 -4 -102 -8 -55 -3 -118 -9 -140 -11 -137 -19
-237 -34 -239 -37 -2 -1 -6 -122 -10 -268 -3 -146 -8 -285 -10 -310 -2 -25 -7
-94 -11 -155 -4 -60 -8 -117 -10 -125 -1 -8 -6 -51 -9 -95 -4 -44 -9 -91 -11
-105 -2 -14 -7 -50 -10 -80 -3 -30 -8 -66 -10 -80 -2 -14 -11 -72 -20 -130 -8
-58 -17 -115 -19 -126 -3 -12 -7 -37 -10 -55 -3 -19 -17 -88 -31 -154 -162
-762 -433 -1171 -776 -1168 -142 1 -306 153 -447 413 -65 121 -170 370 -207
490 -7 25 -25 83 -40 130 -38 124 -61 207 -101 375 -46 192 -54 228 -69 325
-10 65 -27 155 -31 167 -5 19 -193 -185 -322 -350 -197 -252 -346 -506 -476
-811 -70 -163 -162 -448 -182 -566 -3 -14 -7 -33 -10 -42 -20 -68 -55 -299
-71 -468 -10 -108 -10 -468 0 -584 61 -708 329 -1377 776 -1931 35 -44 85
-102 111 -130 26 -27 76 -82 111 -121 37 -42 67 -67 70 -60 4 6 12 49 18 96 6
47 13 94 15 105 10 55 16 94 22 130 3 22 14 78 24 125 10 47 21 99 24 116 16
92 105 412 158 568 138 409 315 697 485 789 171 92 395 4 562 -221 107 -146
245 -457 296 -672 2 -8 15 -60 29 -115 27 -107 71 -322 81 -395 4 -25 10 -63
15 -85 5 -22 11 -69 15 -105 4 -36 8 -67 10 -70 1 -3 6 -36 10 -75 4 -38 8
-83 10 -100 2 -16 7 -59 10 -95 3 -36 8 -83 10 -105 2 -22 7 -74 10 -115 2
-41 7 -109 10 -150 8 -108 14 -284 15 -442 l2 -138 36 -1 c21 0 46 -2 57 -4
35 -7 217 -25 325 -33 179 -11 466 -6 610 13 14 1 50 6 80 9 30 4 64 10 75 13
11 3 31 7 45 8 64 6 334 70 462 110 226 71 558 219 728 325 45 27 83 50 85 50
13 0 221 150 342 247 572 456 983 1080 1192 1808 11 39 23 84 26 100 13 67 17
82 30 135 7 30 16 73 19 95 44 307 50 388 50 620 0 151 -9 344 -18 391 -2 12
-7 45 -11 75 -7 63 -33 217 -40 239 -2 8 -7 30 -10 48 -3 18 -12 58 -21 90 -8
31 -17 68 -20 82 -10 53 -114 350 -158 452 -223 521 -554 965 -996 1338 -29
25 -62 51 -74 59 -12 8 -23 18 -26 21 -13 17 -204 147 -308 211 -64 39 -124
75 -132 80 -8 5 -82 43 -165 83 -328 161 -627 256 -1009 320 -28 5 -90 14
-151 21 -115 14 -536 29 -548 19z"/>
</g>
</svg>
